HIERARCHY
ROOT ui
{
	 OFFSET 0 0 0
	 CHANNELS 3 XPosition YPosition Z Position
	 EndSite
	 {
	 OFFSET 0 -1 0
	 }
}
ROOT li
{
	 OFFSET 0 0 0
	 CHANNELS 3 XPosition YPosition Z Position
	 EndSite
	 {
	 OFFSET 0 -1 0
	 }
}
ROOT ul
{
	 OFFSET 0 0 0
	 CHANNELS 3 XPosition YPosition Z Position
	 EndSite
	 {
	 OFFSET 0 -1 0
	 }
}
ROOT ll
{
	 OFFSET 0 0 0
	 CHANNELS 3 XPosition YPosition Z Position
	 EndSite
	 {
	 OFFSET 0 -1 0
	 }
}
ROOT tt
{
	 OFFSET 0 0 0
	 CHANNELS 3 XPosition YPosition Z Position
	 EndSite
	 {
	 OFFSET 0 -1 0
	 }
}
ROOT tb
{
	 OFFSET 0 0 0
	 CHANNELS 3 XPosition YPosition Z Position
	 EndSite
	 {
	 OFFSET 0 -1 0
	 }
}
ROOT td
{
	 OFFSET 0 0 0
	 CHANNELS 3 XPosition YPosition Z Position
	 EndSite
	 {
	 OFFSET 0 -1 0
	 }
}
ROOT v
{
	 OFFSET 0 0 0
	 CHANNELS 3 XPosition YPosition Z Position
	 EndSite
	 {
	 OFFSET 0 -1 0
	 }
}
ROOT bn
{
	 OFFSET 0 0 0
	 CHANNELS 3 XPosition YPosition Z Position
	 EndSite
	 {
	 OFFSET 0 -1 0
	 }
}
MOTION
Frames: 24
Frame Time: 0.002
0.004930092811584473	0.007235004901885987	0		0.6471349487304687	-2.61645654296875	0		-0.905786865234375	0.2936116943359375	0		-0.18079100036621093	-3.077790283203125	0		1.7290753173828124	-0.94773681640625	0		3.093777099609375	-0.34558901977539064	0		4.36027880859375	0.1944156036376953	0		5.96141455078125	0.37028753662109376	0		-0.3111077880859375	5.948322265625	0		
-0.02043954086303711	0.00804769229888916	0		0.6793223266601562	-2.630788818359375	0		-0.8402313842773438	0.28874560546875	0		-0.13334912109375	-3.077359375	0		1.7074349365234376	-0.9581070556640625	0		3.118681640625	-0.3299280700683594	0		4.36195458984375	0.19643832397460936	0		5.95401513671875	0.3705469970703125	0		-0.19291938781738283	5.95742333984375	0		
-0.009229235649108887	-0.009841276168823241	0		0.651737548828125	-2.628978515625	0		-0.9157193603515625	0.2865716552734375	0		-0.18199642944335936	-3.077095458984375	0		1.725966064453125	-0.956242431640625	0		3.097393798828125	-0.3203876037597656	0		4.3607724609375	0.20951683044433594	0		5.94999609375	0.3533473510742188	0		-0.19298780822753905	5.95777197265625	0		
-0.02139139747619629	0.008721795082092285	0		0.6629276123046876	-2.6359130859375	0		-0.900329345703125	0.28065765380859375	0		-0.17962126159667968	-3.07280712890625	0		1.713399169921875	-0.9557840576171875	0		3.082078369140625	-0.3089590148925781	0		4.3492783203125	0.20979197692871093	0		5.94963134765625	0.35328485107421875	0		-0.29614593505859377	5.95809814453125	0		
-0.004176136016845703	-0.0022889859676361083	0		0.6403356323242188	-2.628197998046875	0		-0.932799072265625	0.28566143798828125	0		-0.1742451629638672	-3.065580322265625	0		1.7127708740234375	-0.9555559692382812	0		3.10365869140625	-0.300240234375	0		4.3528359375	0.21578079223632812	0		5.95292626953125	0.3703599548339844	0		-0.2943906860351562	5.9564111328125	0		
0.020197513580322266	-0.0024434709548950195	0		0.6785702514648437	-2.62766162109375	0		-0.8463812866210938	0.2863630676269531	0		-0.17608695983886719	-3.0672216796875	0		1.6990950927734374	-0.9550776977539063	0		3.08666064453125	-0.2667732238769531	0		4.35351708984375	0.2308291015625	0		5.9524814453125	0.3703158874511719	0		-0.2956395263671875	5.95777587890625	0		
-0.01342123317718506	5.174409747123718E-4	0		0.6389208374023437	-2.61862255859375	0		-0.92207275390625	0.2851881103515625	0		-0.178942626953125	-3.06785009765625	0		1.7301195068359374	-0.9684689331054688	0		3.047814697265625	-0.2748863220214844	0		4.34488720703125	0.23206098937988281	0		5.94461376953125	0.33776284790039063	0		-0.16454563903808594	5.9785712890625	0		
-0.012292880058288574	-0.008203778266906738	0		0.6697509155273438	-2.635959716796875	0		-0.852786865234375	0.2831909790039063	0		-0.17979953002929688	-3.067525634765625	0		1.7004752197265625	-0.962681396484375	0		3.076331787109375	-0.263296630859375	0		4.33933984375	0.23924472045898437	0		5.944115234375	0.3377686767578125	0		-0.1791402587890625	5.96816943359375	0		
-0.013012005805969238	-0.007895925998687743	0		0.6319337768554687	-2.63396337890625	0		-0.9234593505859375	0.28590264892578127	0		-0.17556716918945312	-3.06230810546875	0		1.7196875	-0.96384423828125	0		3.060798095703125	-0.2528447723388672	0		4.33790576171875	0.25336312866210936	0		5.9436005859375	0.33781167602539064	0		-0.17761544799804688	5.9664462890625	0		
-3.9158299565315245E-4	0.010147054672241211	0		0.6482669067382812	-2.62502392578125	0		-0.9241755981445312	0.2862413330078125	0		-0.20324371337890626	-3.052475341796875	0		1.720976806640625	-0.9606566772460937	0		3.056743408203125	-0.21760264587402345	0		4.3413046875	0.2594006652832031	0		5.946771484375	0.353293701171875	0		-0.2962844543457031	5.958060546875	0		
-0.011385862350463866	-0.0033611910343170166	0		0.6572692260742188	-2.633948486328125	0		-0.9248876953125	0.28656887817382815	0		-0.14222799682617188	-3.06038623046875	0		1.74439013671875	-0.951898193359375	0		3.059110107421875	-0.21248190307617187	0		4.3357294921875	0.26663009643554686	0		5.94256396484375	0.3380223083496094	0		-0.2967868957519531	5.95836474609375	0		
0.06285949325561524	-0.006542210102081299	0		0.6685218505859375	-2.631916748046875	0		-0.859690185546875	0.2805937194824219	0		-0.17394136047363282	-3.05548681640625	0		1.7375230712890626	-0.9585463256835938	0		3.06679296875	-0.19245112609863282	0		4.32631298828125	0.280954833984375	0		5.9420634765625	0.33819491577148436	0		-0.17910646057128907	5.96734765625	0		
-0.027474781036376954	0.011503344535827636	0		0.6407930908203125	-2.6311201171875	0		-0.8603483276367188	0.280900146484375	0		-0.11487454986572265	-3.0653740234375	0		1.73097119140625	-0.9511911010742188	0		3.0554189453125	-0.17703396606445312	0		4.32565478515625	0.281126220703125	0		5.941587890625	0.33841799926757815	0		-0.16736367797851562	5.98039794921875	0		
0.0585149040222168	-0.008920363426208496	0		0.6597613525390625	-2.649241455078125	0		-0.9319297485351562	0.2835935363769531	0		-0.19142514038085937	-3.0575986328125	0		1.7334093017578125	-0.9470050048828125	0		3.0339560546875	-0.16840419006347657	0		4.3274130859375	0.3002760925292969	0		5.934013671875	0.33903390502929687	0		-0.29830841064453123	5.9592412109375	0		
-0.010885438919067382	7.13271975517273E-4	0		0.6565053100585938	-2.630916259765625	0		-0.9166173706054688	0.2775736083984375	0		-0.1549702911376953	-3.05404443359375	0		1.729041259765625	-0.9356749267578125	0		3.06141650390625	-0.16672100830078124	0		4.3248271484375	0.29953024291992186	0		5.94073681640625	0.3390232238769531	0		-0.31670782470703124	5.96387841796875	0		
0.0457790412902832	0.009869282722473144	0		0.64206005859375	-2.625369140625	0		-0.9279371337890625	0.2880758056640625	0		-0.19929574584960938	-3.041900634765625	0		1.709652587890625	-0.9280400390625	0		3.03848828125	-0.1360246124267578	0		4.32972119140625	0.32066558837890624	0		5.93323388671875	0.33974795532226565	0		-0.16684707641601562	5.97920654296875	0		
-0.014941529273986816	-0.0016685340404510498	0		0.6482965698242188	-2.639227294921875	0		-0.9334901733398437	0.2844579772949219	0		-0.16884909057617187	-3.045229736328125	0		1.72914892578125	-0.9291605834960938	0		3.034893798828125	-0.14169683837890626	0		4.32126708984375	0.32208535766601565	0		5.9328935546875	0.3401912841796875	0		-0.18151393127441406	5.96876416015625	0		
0.003476805925369263	-0.008760804176330567	0		0.6380397338867188	-2.6297509765625	0		-0.9339309692382812	0.284736572265625	0		-0.1692842102050781	-3.04494970703125	0		1.728710205078125	-0.92887744140625	0		3.0286123046875	-0.1332950439453125	0		4.32008203125	0.33538998413085935	0		5.92888818359375	0.32529656982421873	0		-0.18196434020996094	5.9690439453125	0		
-0.030517288208007812	0.013184870719909668	0		0.6474647827148438	-2.63866064453125	0		-0.9225455322265625	0.27477734375	0		-0.1568372802734375	-3.052923828125	0		1.728302734375	-0.9285847778320313	0		3.047294189453125	-0.12836820983886718	0		4.31966650390625	0.3357001037597656	0		5.93572412109375	0.32551165771484375	0		-0.3006116333007812	5.960646484375	0		
0.008785002708435059	-0.002316535949707031	0		0.6501766357421875	-2.63443115234375	0		-0.9538589477539062	0.27965798950195314	0		-0.18301705932617188	-3.04313427734375	0		1.753031005859375	-0.9227761840820312	0		3.031336181640625	-0.10574251556396484	0		4.330619140625	0.353809814453125	0		5.93200390625	0.3418492126464844	0		-0.3010717468261719	5.96092529296875	0		
-0.016572181701660155	-5.426399707794189E-4	0		0.6389728393554688	-2.626923828125	0		-0.9233292236328124	0.27531903076171876	0		-0.16627922058105468	-3.0391884765625	0		1.749584716796875	-0.9264080200195313	0		3.0357978515625	-0.11351212310791016	0		4.32637060546875	0.3612329406738281	0		5.92803955078125	0.327091064453125	0		-0.30154010009765625	5.9612041015625	0		
-0.021844345092773436	0.004837094783782959	0		0.6366102294921875	-2.62858984375	0		-0.9237054443359375	0.27558523559570314	0		-0.16659555053710937	-3.03890869140625	0		1.779263671875	-0.9246826171875	0		3.04866162109375	-0.1014317855834961	0		4.32599267578125	0.361593994140625	0		5.92777587890625	0.3277659912109375	0		-0.18382591247558594	5.9701640625	0		
-0.02443975257873535	-0.0068401198387146	0		0.669026123046875	-2.6429384765625	0		-0.9240718994140625	0.275846923828125	0		-0.15610771179199218	-3.049843994140625	0		1.775845458984375	-0.9283026123046875	0		3.01540771484375	-0.09543794250488281	0		4.32487939453125	0.37498687744140624	0		5.91669677734375	0.31341818237304686	0		-0.18431614685058595	5.97044189453125	0		
-0.017648538589477538	3.0050399899482727E-4	0		0.620914306640625	-2.633703857421875	0		-0.9486146850585937	0.26657476806640623	0		-0.18423257446289062	-3.042021484375	0		1.78138623046875	-0.9350940551757813	0		3.0300625	-0.09537544250488281	0		4.33250439453125	0.37421981811523436	0		5.91645166015625	0.3141617431640625	0		-0.31721762084960936	5.9513046875	0		
